<svg xmlns="http://www.w3.org/2000/svg" version="1.1" xmlns:xlink="http://www.w3.org/1999/xlink" xmlns:svgjs="http://svgjs.dev/svgjs" width="1440" height="560" preserveAspectRatio="none" viewBox="0 0 1440 560">
    <g mask="url(&quot;#SvgjsMask1004&quot;)" fill="none">
        <g transform="translate(0, 0)" stroke-linecap="round">
            <path d="M260 195.74 L260 364.26" stroke-width="15" stroke="rgba(229, 237, 248, 1)"></path>
            <path d="M280 241.07 L280 318.93" stroke-width="15" stroke="rgba(229, 237, 248, 1)"></path>
            <path d="M300 107.03 L300 452.97" stroke-width="15" stroke="rgba(229, 237, 248, 1)"></path>
            <path d="M320 181.08 L320 378.92" stroke-width="15" stroke="rgba(229, 237, 248, 1)"></path>
            <path d="M340 161.01 L340 398.99" stroke-width="15" stroke="rgba(229, 237, 248, 1)"></path>
            <path d="M360 140.97 L360 419.03" stroke-width="15" stroke="rgba(229, 237, 248, 1)"></path>
            <path d="M380 235.19 L380 324.81" stroke-width="15" stroke="rgba(229, 237, 248, 1)"></path>
            <path d="M400 138.79 L400 421.21" stroke-width="15" stroke="rgba(245, 249, 255, 1)"></path>
            <path d="M420 249.75 L420 310.25" stroke-width="15" stroke="rgba(229, 237, 248, 1)"></path>
            <path d="M440 196.65 L440 363.35" stroke-width="15" stroke="rgba(245, 249, 255, 1)"></path>
            <path d="M460 137.01 L460 422.99" stroke-width="15" stroke="rgba(229, 237, 248, 1)"></path>
            <path d="M480 213.44 L480 346.56" stroke-width="15" stroke="rgba(245, 249, 255, 1)"></path>
            <path d="M500 236.19 L500 323.81" stroke-width="15" stroke="rgba(229, 237, 248, 1)"></path>
            <path d="M520 166.09 L520 393.91" stroke-width="15" stroke="rgba(229, 237, 248, 1)"></path>
            <path d="M540 255.59 L540 304.42" stroke-width="15" stroke="rgba(229, 237, 248, 1)"></path>
            <path d="M560 150.16 L560 409.85" stroke-width="15" stroke="rgba(245, 249, 255, 1)"></path>
            <path d="M580 258.2 L580 301.8" stroke-width="15" stroke="rgba(245, 249, 255, 1)"></path>
            <path d="M600 107.01 L600 452.99" stroke-width="15" stroke="rgba(245, 249, 255, 1)"></path>
            <path d="M620 110.97 L620 449.03" stroke-width="15" stroke="rgba(245, 249, 255, 1)"></path>
            <path d="M640 243.18 L640 316.82" stroke-width="15" stroke="rgba(245, 249, 255, 1)"></path>
            <path d="M660 243.03 L660 316.98" stroke-width="15" stroke="rgba(245, 249, 255, 1)"></path>
            <path d="M680 126.51 L680 433.49" stroke-width="15" stroke="rgba(245, 249, 255, 1)"></path>
            <path d="M700 254.12 L700 305.88" stroke-width="15" stroke="rgba(245, 249, 255, 1)"></path>
            <path d="M720 174.34 L720 385.66" stroke-width="15" stroke="rgba(229, 237, 248, 1)"></path>
            <path d="M740 179.08 L740 380.92" stroke-width="15" stroke="rgba(229, 237, 248, 1)"></path>
            <path d="M760 261.49 L760 298.51" stroke-width="15" stroke="rgba(229, 237, 248, 1)"></path>
            <path d="M780 106.19 L780 453.81" stroke-width="15" stroke="rgba(229, 237, 248, 1)"></path>
            <path d="M800 163.34 L800 396.66" stroke-width="15" stroke="rgba(229, 237, 248, 1)"></path>
            <path d="M820 171.95 L820 388.05" stroke-width="15" stroke="rgba(245, 249, 255, 1)"></path>
            <path d="M840 171.12 L840 388.88" stroke-width="15" stroke="rgba(229, 237, 248, 1)"></path>
            <path d="M860 148.38 L860 411.63" stroke-width="15" stroke="rgba(229, 237, 248, 1)"></path>
            <path d="M880 196.75 L880 363.25" stroke-width="15" stroke="rgba(229, 237, 248, 1)"></path>
            <path d="M900 221.25 L900 338.75" stroke-width="15" stroke="rgba(229, 237, 248, 1)"></path>
            <path d="M920 159.28 L920 400.73" stroke-width="15" stroke="rgba(245, 249, 255, 1)"></path>
            <path d="M940 230.24 L940 329.76" stroke-width="15" stroke="rgba(245, 249, 255, 1)"></path>
            <path d="M960 149.35 L960 410.65" stroke-width="15" stroke="rgba(245, 249, 255, 1)"></path>
            <path d="M980 208.78 L980 351.22" stroke-width="15" stroke="rgba(229, 237, 248, 1)"></path>
            <path d="M1000 213.9 L1000 346.1" stroke-width="15" stroke="rgba(229, 237, 248, 1)"></path>
            <path d="M1020 166.86 L1020 393.14" stroke-width="15" stroke="rgba(245, 249, 255, 1)"></path>
            <path d="M1040 177.28 L1040 382.72" stroke-width="15" stroke="rgba(245, 249, 255, 1)"></path>
            <path d="M1060 112.12 L1060 447.88" stroke-width="15" stroke="rgba(245, 249, 255, 1)"></path>
            <path d="M1080 149.53 L1080 410.48" stroke-width="15" stroke="rgba(245, 249, 255, 1)"></path>
            <path d="M1100 129.99 L1100 430.01" stroke-width="15" stroke="rgba(245, 249, 255, 1)"></path>
            <path d="M1120 231.66 L1120 328.33" stroke-width="15" stroke="rgba(245, 249, 255, 1)"></path>
            <path d="M1140 121.57 L1140 438.43" stroke-width="15" stroke="rgba(245, 249, 255, 1)"></path>
            <path d="M1160 176.44 L1160 383.56" stroke-width="15" stroke="rgba(229, 237, 248, 1)"></path>
            <path d="M1180 227.47 L1180 332.52" stroke-width="15" stroke="rgba(229, 237, 248, 1)"></path>
        </g>
    </g>
    <defs>
        <mask id="SvgjsMask1004">
            <rect width="1440" height="560" fill="#ffffff"></rect>
        </mask>
    </defs>
</svg>