<svg xmlns="http://www.w3.org/2000/svg" width="83" height="99" viewBox="0 0 83 99">
  <g fill="none">
    <path fill="#666" d="M49.0164969,38.4232565 C49.6568131,40.6075989 50,42.9166158 50,45.304811 C50,58.9435873 38.8071187,70 25,70 C11.1928813,70 0,58.9435873 0,45.304811 C0,40.7895384 1.22675835,36.5572972 3.36899999,32.9155672 C3.67075751,32.3227716 3.99854523,31.728926 4.35413218,31.1431765 C9.74431131,22.264069 23.6122265,0 25.7038975,0 C27.7955685,0 40.9787699,22.1012804 46.167141,31.1431765 C47.5732834,33.5936939 48.4676354,36.2903528 49.0164969,38.4232565 Z"/>
    <path fill="#444" d="M58.0164969,67.4232565 C58.6568131,69.6075989 59,71.9166158 59,74.304811 C59,87.9435873 47.8071187,99 34,99 C20.1928813,99 9,87.9435873 9,74.304811 C9,69.7895384 10.2267583,65.5572972 12.369,61.9155672 C12.6707575,61.3227716 12.9985452,60.728926 13.3541322,60.1431765 C18.7443113,51.264069 32.6122265,29 34.7038975,29 C36.7955685,29 49.9787699,51.1012804 55.167141,60.1431765 C56.5732834,62.5936939 57.4676354,65.2903528 58.0164969,67.4232565 Z"/>
    <path fill="#222" d="M82.0164969,47.4232565 C82.6568131,49.6075989 83,51.9166158 83,54.304811 C83,67.9435873 71.8071187,79 58,79 C44.1928813,79 33,67.9435873 33,54.304811 C33,49.7895384 34.2267583,45.5572972 36.369,41.9155672 C36.6707575,41.3227716 36.9985452,40.728926 37.3541322,40.1431765 C42.7443113,31.264069 56.6122265,9 58.7038975,9 C60.7955685,9 73.9787699,31.1012804 79.167141,40.1431765 C80.5732834,42.5936939 81.4676354,45.2903528 82.0164969,47.4232565 Z"/>
  </g>
</svg>
