<svg xmlns="http://www.w3.org/2000/svg" width="951" height="354" viewBox="0 0 951 354">
    <g fill="none" fill-rule="evenodd" stroke="rgba(255,255,255,0.05)" transform="translate(0 1)">
        <path d="M0,345.765625 C92.889433,299.932796 195.617298,263.092952 308.183594,235.246094 C477.033038,193.475806 606.909825,209.646117 718.019531,168.140625 C792.092668,140.470297 869.752825,84.4234219 951,0"/>
        <path d="M0,345.765625 C92.889433,270.099463 195.617298,218.342952 308.183594,190.496094 C477.033038,148.725806 640.589513,255.860961 751.699219,214.355469 C825.772356,186.685141 892.20595,115.233318 951,0"/>
        <path d="M0,345.765625 C83.5827615,348.104407 192.815834,321.170813 327.699219,264.964844 C530.024295,180.65589 533.961377,131.871002 654.875,72.8789062 C735.484082,33.5508427 834.192416,9.25787396 951,0"/>
        <path d="M0,345.765625 C109.514536,363.741964 231.713496,344.627148 366.59688,288.421179 C568.921956,204.112225 594.609719,151.730492 720.269531,90.9375 C804.042739,50.4088386 880.952896,20.0963386 951,0"/>
    </g>
</svg>