<?xml version="1.0" standalone="no"?>
<!DOCTYPE svg PUBLIC "-//W3C//DTD SVG 20010904//EN"
 "http://www.w3.org/TR/2001/REC-SVG-20010904/DTD/svg10.dtd">
<svg version="1.0" xmlns="http://www.w3.org/2000/svg"
 width="200.000000pt" height="200.000000pt" viewBox="0 0 200.000000 200.000000"
 preserveAspectRatio="xMidYMid meet">
<metadata>
Created by potrace 1.14, written by Peter Selinger 2001-2017
</metadata>
<g transform="translate(0.000000,200.000000) scale(0.100000,-0.100000)"
fill="#000000" stroke="none">
<path d="M834 1800 c0 -113 2 -159 3 -102 2 56 2 148 0 205 -1 56 -3 10 -3
-103z"/>
<path d="M1046 1983 c4 -10 9 -52 11 -93 2 -41 5 -81 8 -87 5 -16 101 -18 110
-3 4 6 24 19 46 30 50 26 51 44 2 37 -21 -3 -62 -9 -92 -13 l-54 -7 5 77 c5
75 5 76 -20 76 -19 0 -23 -3 -16 -17z"/>
<path d="M1758 1986 c-10 -7 -18 -18 -18 -25 0 -6 -11 -11 -25 -11 -19 0 -23
4 -18 17 5 13 2 15 -18 10 -13 -4 -33 -7 -45 -7 -12 0 -31 -9 -44 -20 -13 -11
-18 -20 -12 -20 7 0 12 -6 12 -14 0 -23 11 -25 85 -10 39 7 78 11 88 8 14 -5
17 2 17 40 0 25 -1 46 -2 46 -2 0 -11 -7 -20 -14z"/>
<path d="M1423 1919 c-19 -5 -33 -16 -33 -25 0 -8 -11 -19 -25 -24 -36 -14
-32 -34 5 -26 17 3 59 11 95 18 41 7 65 16 65 25 0 7 -11 13 -25 13 -16 0 -25
6 -25 15 0 17 -10 17 -57 4z"/>
<path d="M1758 1770 c-3 -58 -4 -107 -2 -109 1 -1 7 0 13 4 12 7 14 110 2 170
-6 33 -8 21 -13 -65z"/>
<path d="M1620 1840 c-24 -8 -23 -8 8 -9 17 -1 32 4 32 9 0 11 -5 11 -40 0z"/>
<path d="M1385 1790 c-14 -7 -8 -8 20 -3 22 3 42 7 44 9 9 8 -45 2 -64 -6z"/>
<path d="M1027 1766 c-36 -19 -54 -45 -19 -28 21 10 31 9 60 -6 19 -11 22 -10
23 5 1 12 3 10 9 -7 5 -17 8 -19 9 -7 1 21 17 22 25 2 5 -13 9 -13 26 -3 17
11 22 10 30 -2 5 -8 10 -12 10 -9 0 4 18 3 40 -1 48 -9 44 1 -18 37 -64 38
-145 45 -195 19z"/>
<path d="M110 1710 c0 -20 5 -30 15 -30 8 0 16 5 16 10 1 6 2 16 3 23 2 12
-12 27 -26 27 -5 0 -8 -13 -8 -30z"/>
<path d="M115 1640 c-4 -6 -3 -61 1 -123 6 -93 9 -105 15 -72 11 58 11 205 0
205 -6 0 -13 -5 -16 -10z"/>
<path d="M868 1432 c-10 -10 -45 -24 -79 -30 -73 -13 -77 -16 -57 -39 8 -10
23 -46 33 -80 15 -52 24 -67 56 -88 21 -14 47 -25 58 -25 45 0 51 -10 22 -38
-15 -15 -31 -38 -34 -51 -6 -25 -4 -24 77 55 12 11 34 52 50 90 16 38 38 78
48 89 19 20 19 20 34 1 8 -11 14 -27 14 -35 1 -26 39 -103 48 -97 5 3 8 -6 6
-19 -1 -14 2 -23 7 -19 11 6 79 -59 79 -76 0 -14 -37 -13 -43 3 -4 9 -6 9 -6
-1 -1 -9 -10 -7 -31 8 -16 12 -39 22 -51 23 -12 1 -28 11 -36 23 -10 16 -24
22 -48 22 -33 0 -43 -7 -29 -21 4 -3 15 -2 24 3 16 9 18 5 16 -34 -2 -41 0
-43 26 -44 15 0 28 5 28 11 0 7 5 4 11 -5 5 -10 28 -21 49 -24 81 -13 26 -24
-88 -18 -101 5 -120 9 -136 27 -13 13 -21 16 -24 9 -2 -7 -8 -10 -13 -6 -5 3
-9 -1 -9 -8 0 -9 -3 -9 -10 2 -6 9 -10 10 -10 3 0 -6 5 -15 10 -18 6 -4 8 -10
5 -15 -9 -14 29 -30 46 -19 17 12 277 9 302 -3 9 -5 17 -15 17 -22 0 -22 -29
-74 -45 -80 -8 -3 -15 -14 -15 -25 0 -11 -4 -23 -10 -26 -6 -4 -7 1 -4 12 5
16 4 16 -10 -1 -8 -10 -13 -23 -10 -27 3 -5 1 -9 -5 -9 -5 0 -11 6 -14 13 -3
9 -7 9 -18 1 -8 -6 -25 -14 -39 -16 -14 -3 -32 -9 -41 -12 -11 -5 -25 1 -39
16 -13 13 -19 16 -15 8 7 -12 6 -13 -7 -3 -8 7 -19 9 -23 5 -5 -4 -5 -1 -1 6
4 6 2 12 -3 12 -6 0 -11 9 -11 21 0 11 -4 18 -8 15 -5 -3 -9 1 -9 9 0 8 3 12
7 10 4 -2 7 2 7 10 0 8 -4 12 -8 10 -4 -3 -9 2 -13 10 -8 22 -25 18 -36 -7 -6
-15 -9 -17 -9 -7 -1 22 -37 53 -46 40 -3 -6 -1 -11 5 -11 6 0 9 -4 6 -8 -3 -5
4 -23 15 -42 l20 -33 -33 -34 c-43 -45 -72 -59 -133 -68 -28 -4 -95 -18 -150
-30 -55 -13 -120 -26 -145 -30 -25 -4 -49 -10 -55 -14 -16 -10 -98 -30 -120
-30 -16 1 -15 2 5 9 l25 8 -25 1 c-46 1 -72 -10 -67 -30 3 -11 1 -22 -4 -25
-5 -3 -9 -22 -9 -43 0 -35 -29 -128 -65 -206 -7 -16 -21 -48 -30 -70 -15 -38
-17 -39 -31 -21 -12 18 -14 3 -14 -127 l0 -147 525 0 c507 0 525 1 525 19 0
28 26 47 45 31 8 -7 15 -20 15 -28 0 -13 -3 -12 -14 4 -11 14 -17 16 -26 7
-22 -21 0 -31 69 -31 57 0 68 3 64 15 -3 8 0 19 8 24 10 6 11 9 1 9 -7 0 -17
-10 -22 -22 -6 -16 -9 -18 -9 -7 -1 20 26 45 37 35 7 -8 8 -13 11 -41 0 -8 8
-15 16 -15 11 0 15 11 15 40 0 22 -5 40 -10 40 -6 0 -8 12 -4 28 4 21 3 24 -5
12 -7 -9 -11 -10 -11 -3 0 6 5 15 10 18 16 10 12 102 -5 108 -10 4 -14 20 -13
50 1 50 -8 85 -28 108 -8 9 -16 26 -19 37 -2 11 -9 31 -16 44 -13 23 -15 29
-18 49 0 6 -8 8 -17 5 -23 -9 -54 2 -54 19 0 9 13 13 45 11 24 -1 48 -5 52
-10 4 -4 3 -6 -2 -4 -6 2 -10 -1 -10 -7 0 -5 4 -9 8 -7 5 1 6 -2 2 -8 -3 -5 1
-11 9 -11 9 -1 21 -3 26 -4 6 -1 18 -3 28 -4 26 -2 45 -37 32 -61 -6 -12 -7
-27 -1 -43 6 -14 12 -45 16 -68 3 -24 13 -76 20 -116 8 -40 15 -89 15 -110 0
-21 3 -56 7 -78 5 -31 8 -35 14 -20 7 17 8 18 8 3 1 -16 15 -18 145 -18 160 0
172 5 168 63 -4 44 -15 51 -39 23 -12 -13 -19 -26 -17 -29 3 -2 -2 -7 -10 -10
-9 -4 -18 -1 -22 5 -4 7 -3 8 4 4 7 -4 12 -2 12 4 0 12 70 80 83 80 12 0 1
-108 -13 -125 -11 -13 5 -15 138 -15 l151 0 -39 82 c-22 45 -40 88 -40 95 0 7
-13 27 -29 46 -16 18 -33 46 -37 63 -3 16 -19 55 -35 87 -16 32 -29 64 -29 73
0 8 -18 50 -39 93 l-40 78 -95 32 c-53 18 -124 39 -158 46 -35 8 -74 17 -88
20 -14 4 -20 3 -14 -2 14 -10 24 -63 13 -63 -5 0 -14 18 -20 40 -19 61 -30 35
-32 -74 -1 -53 -6 -96 -10 -96 -9 0 -57 30 -75 47 -8 7 -18 11 -23 8 -5 -4 -9
-1 -9 5 0 8 -9 10 -26 6 -21 -6 -25 -4 -21 8 5 11 0 16 -12 16 -27 0 -51 -10
-51 -22 0 -5 6 -6 13 -2 9 5 9 3 -1 -7 -10 -11 -14 -11 -21 -1 -6 10 -19 8
-59 -9 -57 -24 -62 -23 -66 13 -2 12 -13 54 -25 92 -21 68 -26 120 -15 150 4
12 20 1 65 -44 33 -33 66 -60 74 -60 8 0 15 -4 15 -10 0 -5 9 -10 19 -10 11 0
23 -5 26 -10 4 -6 11 -8 16 -5 5 4 9 1 9 -4 0 -6 5 -11 11 -11 5 0 8 4 5 8 -5
8 51 57 64 57 3 0 33 23 66 50 77 64 131 132 116 147 -6 6 -8 17 -5 24 6 17
-11 18 -38 3 -44 -23 -57 -20 -52 14 3 18 5 37 4 42 -3 54 -9 77 -27 97 -33
35 -27 58 13 58 29 0 103 23 103 32 0 2 11 35 24 73 18 52 28 69 40 67 9 -2
16 1 16 5 -1 21 -19 32 -63 38 -26 4 -54 14 -62 22 -21 21 -94 44 -120 37 -13
-3 -31 -14 -41 -25 -9 -10 -21 -16 -27 -12 -6 4 -8 -2 -5 -15 4 -12 2 -22 -3
-22 -5 0 -9 4 -9 9 0 4 -11 6 -24 4 -17 -4 -25 0 -29 16 -3 12 -12 21 -21 21
-9 0 -27 6 -39 13 -33 20 -89 20 -109 -1z m-8 -40 c0 -4 -5 -13 -11 -19 -12
-12 -21 -63 -12 -63 3 0 17 8 31 18 26 18 28 18 45 0 11 -12 13 -18 5 -19 -10
0 -10 -2 0 -6 19 -8 3 -23 -26 -24 -19 -1 -21 -3 -8 -6 22 -6 108 25 101 37
-3 4 2 11 11 14 13 5 14 1 9 -27 -10 -45 -31 -83 -50 -91 -27 -10 -115 -7
-137 5 -21 12 -48 66 -48 99 0 13 4 18 11 15 6 -4 5 2 -2 13 -16 26 0 49 39
55 15 2 30 5 35 6 4 0 7 -3 7 -7z m24 -26 c-10 -8 -21 -12 -24 -10 -5 6 21 24
34 24 6 0 1 -6 -10 -14z m461 -10 c19 -28 12 -90 -16 -135 -14 -23 -27 -31
-62 -36 -52 -8 -123 9 -136 33 -16 30 -24 92 -12 92 6 0 11 -4 11 -8 0 -13 47
-32 78 -32 25 1 25 2 9 14 -15 12 -11 14 35 21 29 5 57 7 61 6 12 -2 -21 57
-35 62 -7 3 2 6 19 6 24 1 37 -5 48 -23z m-67 -6 c26 -25 30 -40 5 -18 -10 8
-27 20 -38 26 -15 9 -16 11 -4 12 8 0 25 -9 37 -20z m-138 -19 c0 -4 -8 -7
-19 -7 -11 0 -17 6 -14 13 5 12 33 7 33 -6z m130 -5 c0 -3 -4 -8 -10 -11 -5
-3 -10 -1 -10 4 0 6 5 11 10 11 6 0 10 -2 10 -4z m-387 -143 c-7 -2 -19 -2
-25 0 -7 3 -2 5 12 5 14 0 19 -2 13 -5z m187 -113 c0 -5 -5 -10 -11 -10 -5 0
-7 5 -4 10 3 6 8 10 11 10 2 0 4 -4 4 -10z m195 -150 c3 -5 -1 -10 -10 -10 -9
0 -13 5 -10 10 3 6 8 10 10 10 2 0 7 -4 10 -10z m-285 -380 c3 -1 8 -2 13 -1
4 0 7 -3 7 -7 0 -5 11 -14 25 -20 32 -15 38 -15 29 0 -4 7 -3 8 4 4 7 -4 12
-14 12 -21 0 -8 9 -19 19 -25 25 -13 41 -13 21 0 -13 8 -13 10 1 10 30 0 41
-33 30 -92 -2 -15 -18 -8 -18 7 0 8 4 15 9 15 5 0 4 9 -2 20 -12 23 -32 27
-24 5 9 -21 -14 -45 -42 -45 -13 0 -23 -3 -22 -7 1 -5 -3 -21 -7 -38 l-9 -30
-7 25 c-5 18 -7 12 -7 -24 1 -28 -5 -51 -12 -56 -9 -6 -11 -21 -6 -55 6 -36 5
-45 -5 -39 -9 5 -11 -10 -6 -69 4 -46 3 -78 -3 -82 -6 -3 -10 -1 -10 5 0 6 -8
20 -18 30 -17 19 -47 118 -38 127 2 2 11 -3 20 -12 12 -12 16 -13 17 -3 1 7 5
2 9 -12 7 -22 8 -21 9 13 1 25 -4 40 -14 43 -8 4 -15 16 -16 28 0 20 -1 20 -8
1 -6 -15 -10 -5 -16 40 -5 35 -11 52 -14 40 -2 -11 -10 23 -16 75 -10 78 -9
96 2 103 7 4 13 17 13 28 0 11 4 18 8 15 4 -2 14 -1 21 4 12 7 33 7 51 0z
m-93 -22 c-3 -8 -6 -5 -6 6 -1 11 2 17 5 13 3 -3 4 -12 1 -19z m233 -8 c0 -5
-5 -10 -11 -10 -5 0 -7 5 -4 10 3 6 8 10 11 10 2 0 4 -4 4 -10z m85 -149 c6
-21 -3 -51 -16 -51 -14 0 -29 37 -23 54 8 22 31 20 39 -3z m-113 -3 c-15 -15
-16 -48 -1 -48 6 0 8 7 4 18 -5 14 -4 15 6 5 15 -15 -2 -40 -20 -29 -20 13 -6
66 18 66 3 0 0 -5 -7 -12z m-32 -8 c0 -5 -5 -10 -11 -10 -5 0 -7 5 -4 10 3 6
8 10 11 10 2 0 4 -4 4 -10z m-2 -72 c3 -24 -22 -57 -35 -44 -4 3 2 13 13 20
10 8 16 18 11 22 -4 4 -7 2 -7 -4 0 -7 -4 -12 -10 -12 -5 0 -10 8 -10 18 0 41
33 41 38 0z m105 0 c14 -21 2 -48 -22 -48 -24 0 -34 25 -20 51 11 22 27 21 42
-3z m47 -8 c0 -5 -4 -10 -10 -10 -5 0 -10 5 -10 10 0 6 5 10 10 10 6 0 10 -4
10 -10z m-120 -10 c0 -5 -5 -10 -11 -10 -5 0 -7 5 -4 10 3 6 8 10 11 10 2 0 4
-4 4 -10z m13 -62 c14 -22 1 -48 -23 -48 -15 0 -20 7 -20 28 0 44 22 54 43 20z
m117 13 c0 -6 -5 -13 -12 -17 -7 -5 -8 -2 -3 7 6 11 5 11 -5 2 -14 -13 -6 -48
10 -38 5 3 10 1 10 -4 0 -6 -7 -11 -15 -11 -16 0 -31 43 -20 59 8 14 35 14 35
2z m-190 -21 c0 -5 -4 -10 -10 -10 -5 0 -10 5 -10 10 0 6 5 10 10 10 6 0 10
-4 10 -10z m593 -42 c-31 -20 -53 -23 -53 -8 0 6 5 10 10 10 6 0 10 5 10 11 0
5 -4 7 -10 4 -5 -3 -10 -1 -10 5 0 20 44 29 63 12 16 -15 16 -16 -10 -34z
m-468 32 c3 -5 1 -10 -4 -10 -6 0 -11 5 -11 10 0 6 2 10 4 10 3 0 8 -4 11 -10z
m-112 -62 c13 -20 -6 -48 -32 -47 -12 0 -12 2 -2 6 11 4 11 7 0 13 -10 7 -10
12 0 23 9 12 9 16 -1 21 -7 3 -4 5 6 3 10 -1 24 -9 29 -19z m127 7 c18 -22 3
-57 -23 -53 -37 5 -33 67 4 68 4 0 12 -7 19 -15z m-80 -25 c0 -5 -4 -10 -10
-10 -5 0 -10 5 -10 10 0 6 5 10 10 10 6 0 10 -4 10 -10z m537 -62 c-3 -8 -6
-5 -6 6 -1 11 2 17 5 13 3 -3 4 -12 1 -19z m-537 -18 c0 -5 -4 -10 -10 -10 -5
0 -10 5 -10 10 0 6 5 10 10 10 6 0 10 -4 10 -10z"/>
<path d="M1175 360 c-4 -7 -1 -16 6 -21 17 -10 26 8 11 23 -6 6 -12 6 -17 -2z"/>
<path d="M1142 254 c-7 -8 -8 -14 -3 -14 10 0 25 19 20 25 -2 1 -10 -3 -17
-11z"/>
<path d="M1083 175 c0 -8 4 -12 9 -9 4 3 8 9 8 15 0 5 -4 9 -8 9 -5 0 -9 -7
-9 -15z"/>
<path d="M1133 114 c-3 -8 -2 -19 4 -25 5 -5 9 1 11 16 2 28 -6 33 -15 9z"/>
<path d="M1441 1214 c0 -11 3 -14 6 -6 3 7 2 16 -1 19 -3 4 -6 -2 -5 -13z"/>
<path d="M245 1188 c-66 -4 -131 -8 -145 -8 l-25 -1 6 -97 c4 -53 7 -161 8
-239 1 -107 4 -143 14 -143 6 0 21 -3 32 -6 20 -5 21 -2 17 53 -2 32 -6 130
-8 219 -5 141 -4 163 11 177 9 10 20 17 24 17 10 0 31 -201 31 -302 0 -47 3
-105 6 -129 6 -43 7 -44 45 -47 l38 -2 -5 92 c-3 51 -5 104 -5 118 0 14 1 76
1 139 1 63 5 122 11 132 6 12 23 19 52 21 23 2 35 5 27 8 -8 3 -69 2 -135 -2z"/>
<path d="M1075 1130 c3 -5 17 -10 31 -10 13 0 24 5 24 10 0 6 -14 10 -31 10
-17 0 -28 -4 -24 -10z"/>
<path d="M1416 1125 c-3 -8 -1 -15 4 -15 6 0 10 7 10 15 0 8 -2 15 -4 15 -2 0
-6 -7 -10 -15z"/>
<path d="M983 1083 c4 -3 0 -14 -8 -23 -13 -14 -13 -17 0 -17 8 0 12 4 9 8 -2
4 0 10 6 14 14 8 13 25 -2 25 -6 0 -8 -3 -5 -7z"/>
<path d="M1250 1065 c1 -6 7 -21 16 -35 l15 -25 -7 25 c-7 26 -24 52 -24 35z"/>
<path d="M1063 935 c4 -8 2 -17 -4 -20 -5 -4 -8 -1 -7 5 3 14 -29 22 -37 10
-7 -12 41 -44 53 -36 17 11 20 44 5 50 -11 4 -13 2 -10 -9z"/>
<path d="M370 843 c-16 -6 -40 -32 -40 -44 0 -6 53 -29 66 -29 8 0 4 69 -3 73
-5 2 -15 2 -23 0z"/>
<path d="M1040 656 c0 -2 8 -10 18 -17 15 -13 16 -12 3 4 -13 16 -21 21 -21
13z"/>
<path d="M1130 630 c-9 -6 -10 -10 -3 -10 6 0 15 5 18 10 8 12 4 12 -15 0z"/>
<path d="M1100 548 c0 -4 4 -8 9 -8 6 0 12 4 15 8 3 5 -1 9 -9 9 -8 0 -15 -4
-15 -9z"/>
<path d="M1272 53 c-2 -41 1 -53 13 -53 10 0 15 9 14 28 0 24 -1 25 -9 7 -6
-16 -9 -10 -12 25 l-5 45 -1 -52z"/>
</g>
</svg>
