<?xml version="1.0" standalone="no"?>
<!DOCTYPE svg PUBLIC "-//W3C//DTD SVG 20010904//EN"
 "http://www.w3.org/TR/2001/REC-SVG-20010904/DTD/svg10.dtd">
<svg version="1.0" xmlns="http://www.w3.org/2000/svg"
 width="476.000000pt" height="476.000000pt" viewBox="0 0 476.000000 476.000000"
 preserveAspectRatio="xMidYMid meet">
<metadata>
Created by potrace 1.14, written by Peter Selinger 2001-2017
</metadata>
<g transform="translate(0.000000,476.000000) scale(0.100000,-0.100000)"
fill="#000000" stroke="none">
<path d="M3 2758 c3 -753 4 -775 24 -849 94 -334 319 -560 649 -651 72 -19
109 -21 437 -25 409 -5 373 -16 338 96 -22 72 -69 148 -108 178 -82 60 -154
80 -296 84 -324 8 -496 117 -582 370 -50 144 -56 227 -60 724 -3 388 -6 469
-20 520 -40 149 -137 247 -296 301 -39 13 -75 24 -80 24 -6 0 -9 -289 -6 -772z"/>
<path d="M1463 2453 c1 -329 6 -607 9 -618 3 -11 9 -33 13 -50 12 -49 66 -157
106 -211 85 -116 234 -220 393 -277 159 -56 396 -80 551 -56 167 27 355 121
486 246 l56 53 49 -47 c182 -177 433 -264 744 -258 177 3 283 29 435 107 206
106 382 322 420 515 13 68 23 336 31 851 l5 344 -33 -7 c-94 -20 -212 -86
-262 -146 -79 -94 -88 -142 -91 -524 -2 -321 -6 -368 -42 -457 -60 -151 -216
-281 -399 -333 -28 -7 -142 -8 -174 -1 -14 3 -38 9 -55 12 -40 9 -132 52 -175
83 -90 64 -172 179 -201 281 -7 25 -14 52 -17 60 -2 8 -6 139 -8 290 -4 352
-9 426 -31 482 -29 74 -78 135 -140 175 -57 36 -191 88 -201 78 -4 -3 -6 -227
-7 -498 -1 -542 -2 -550 -63 -676 -86 -178 -273 -293 -472 -292 -280 2 -511
206 -544 482 -4 25 -7 178 -7 340 -2 316 -8 366 -54 446 -51 85 -143 151 -264
187 -30 9 -56 16 -58 16 -2 0 -2 -269 0 -597z"/>
<path d="M655 2685 c-24 -25 -25 -31 -25 -141 0 -124 12 -167 51 -179 26 -9
279 -8 327 1 132 24 249 153 268 297 l7 47 -301 0 -301 0 -26 -25z"/>
</g>
</svg>
