<?xml version="1.0" encoding="UTF-8"?>
<svg width="477px" height="230px" viewBox="0 0 477 230" version="1.1" xmlns="http://www.w3.org/2000/svg" xmlns:xlink="http://www.w3.org/1999/xlink">
    <title>tw</title>
    <defs>
        <linearGradient x1="9.4094049%" y1="4.87930752%" x2="59.5204021%" y2="91.2847506%" id="linearGradient-1">
            <stop stop-color="#47DCFF" offset="0%"></stop>
            <stop stop-color="#0026AD" offset="100%"></stop>
        </linearGradient>
        <linearGradient x1="1.11022302e-14%" y1="31.4542718%" x2="82.2143509%" y2="61.5397015%" id="linearGradient-2">
            <stop stop-color="#E175FF" offset="0%"></stop>
            <stop stop-color="#60005E" offset="100%"></stop>
        </linearGradient>
        <linearGradient x1="104.723703%" y1="-20.6434195%" x2="5.45351937%" y2="33.0305912%" id="linearGradient-3">
            <stop stop-color="#47DCFF" offset="0%"></stop>
            <stop stop-color="#004890" offset="100%"></stop>
        </linearGradient>
        <linearGradient x1="24.7293531%" y1="12.7102604%" x2="59.7530363%" y2="90.7869836%" id="linearGradient-4">
            <stop stop-color="#E175FF" offset="0%"></stop>
            <stop stop-color="#2556C0" offset="100%"></stop>
        </linearGradient>
        <linearGradient x1="72.3539615%" y1="-22.405083%" x2="31.8033089%" y2="32.6074182%" id="linearGradient-5">
            <stop stop-color="#47DCFF" offset="0%"></stop>
            <stop stop-color="#004890" offset="100%"></stop>
        </linearGradient>
        <linearGradient x1="9.9822248%" y1="-24.9700021%" x2="63.0107928%" y2="109.518508%" id="linearGradient-6">
            <stop stop-color="#AF3CFF" offset="0%"></stop>
            <stop stop-color="#FF1313" offset="100%"></stop>
            <stop stop-color="#FF1313" offset="100%"></stop>
        </linearGradient>
        <linearGradient x1="74.509139%" y1="75.6426224%" x2="50%" y2="37.4805232%" id="linearGradient-7">
            <stop stop-color="#3CFFE2" offset="0%"></stop>
            <stop stop-color="#1C7AFF" offset="100%"></stop>
        </linearGradient>
        <linearGradient x1="6.19506475%" y1="42.7846641%" x2="82.5919963%" y2="56.8497455%" id="linearGradient-8">
            <stop stop-color="#FF4790" offset="0%"></stop>
            <stop stop-color="#F41C1C" offset="47.1136686%"></stop>
            <stop stop-color="#910303" offset="100%"></stop>
        </linearGradient>
    </defs>
    <g id="Page-1" stroke="none" stroke-width="1" fill="none" fill-rule="evenodd">
        <g id="tw" transform="translate(-0.001466, 0.000000)">
            <g id="w" transform="translate(146.001466, 48.000000)">
                <g id="left" transform="translate(0.000000, 0.000000)">
                    <path d="M0,0 C0,20.6603421 0,47.3411447 0,91 C0,155.093455 37.4075574,182.000752 92,182.000752 C146.592443,182.000752 184.256091,155.093455 184.256091,91.8043024 C184.256091,71.2369622 184.256091,62.8441225 184.256091,43.5486394 C184.256091,43.5486394 187.421274,6.7627918 146.592443,0 C146.592443,18.7165619 146.592443,52.3732982 146.592443,91.8043024 C146.592443,127.401249 117.795369,147.462238 92.4249436,147.462238 C67.054518,147.462238 37.8522219,127.401249 37.8522219,91.8043024 C37.8522219,71.2369622 37.8522219,63.6727921 37.8522219,43.5486394 C37.8522219,43.5486394 42.8611177,8.33594114 0,0 Z" id="top" fill="url(#linearGradient-1)"></path>
                    <path d="M0,91 C0,155.093455 37.4075574,182.000752 92,182.000752 C146.592443,182.000752 184.256091,155.093455 184.256091,91.8043024 C184.256091,71.2369622 184.256091,62.8441225 184.256091,43.5486394 C184.256091,43.5486394 187.421274,6.7627918 146.592443,0 C146.592443,18.7165619 146.592443,52.3732982 146.592443,91.8043024 C146.592443,127.401249 117.795369,147.462238 92.4249436,147.462238 C67.054518,147.462238 14.5797126,140.027419 0,91 Z" id="bottom" fill="url(#linearGradient-2)"></path>
                </g>
                <g id="right" transform="translate(146.000000, 0.000000)">
                    <path d="M0,0 C0,20.6603421 0,47.3411447 0,91 C0,155.093455 37.4075574,182.000752 92,182.000752 C146.592443,182.000752 184.256091,155.093455 184.256091,91.8043024 C184.256091,71.2369622 184,17.0723285 184.256091,0 C141.769079,5.04535288 146.592443,44.2829387 146.592443,44.2829387 C146.592443,44.2829387 146.592443,52.3732982 146.592443,91.8043024 C146.592443,127.401249 117.795369,147.462238 92.4249436,147.462238 C67.054518,147.462238 38.2424346,127.566277 38.2424346,91.9693303 C38.2424346,71.40199 38.2560908,65.1185004 38.4452182,44.2829387 C38.4452182,44.2829387 40.5474943,2.38562873 0,0 Z" id="top" fill="url(#linearGradient-3)"></path>
                    <path d="M0.592442645,15.9414166 C0.592442645,36.6017587 2.27373675e-13,47.3411447 2.27373675e-13,91 C2.27373675e-13,155.093455 37.4075574,182.000752 92,182.000752 C146.592443,182.000752 184.256091,155.093455 184.256091,91.8043024 C184.256091,71.2369622 184,17.0723285 184.256091,0 C141.769079,5.04535288 146.592443,44.2829387 146.592443,44.2829387 C146.592443,44.2829387 146.592443,52.3732982 146.592443,91.8043024 C146.592443,127.401249 117.795369,147.462238 92.4249436,147.462238 C67.054518,147.462238 38.2424346,127.566277 38.2424346,91.9693303 C38.2424346,63.8922148 38.2424346,37.9394656 0.592442645,15.9414166 Z" id="middle" fill="url(#linearGradient-3)"></path>
                    <path d="M4.54747351e-13,15.5837684 C4.54747351e-13,36.2441105 4.54747351e-13,47.3411447 4.54747351e-13,91 C4.54747351e-13,155.093455 37.4075574,182.000752 92,182.000752 C146.592443,182.000752 184.256091,155.093455 184.256091,91.8043024 C184.256091,71.2369622 183.743909,88.3092907 184,71.2369622 C168.837326,127.566277 117.795369,147.462238 92.4249436,147.462238 C67.054518,147.462238 38.2424346,127.566277 38.2424346,91.9693303 C38.2424346,63.8922148 38.2424346,37.1634505 4.54747351e-13,15.5837684 Z" id="bottom" fill="url(#linearGradient-4)"></path>
                </g>
            </g>
            <g id="t">
                <path d="M147,230 C133.00287,230 114.814198,230 92.4339853,230 C52.1862298,230 29.254833,206.593594 29.254833,206.593594 C-0.125617791,182.743013 0,140.023293 0,140.023293 C0,140.023293 0,10.7722321 0,0 C43.6773748,9.01867458 40.1898889,45.258867 40.1898889,45.258867 C40.1898889,70.6731575 40.1898889,83.2526245 40.1898889,117.864577 C40.1898889,166.203808 60.3239178,190.445167 90.0114948,192.38686 C90.0114948,192.38686 114.261267,194.747574 114.261267,194.747574 C133.537557,196.967587 144.450468,208.718396 147,230 Z" id="top" fill="url(#linearGradient-5)"></path>
                <path d="M147.000803,230 C133.003137,230 114.814198,230 92.4339853,230 C52.1862298,230 29.254833,206.593594 29.254833,206.593594 C-0.125617791,182.743013 0.00080284245,140.023293 0.00080284245,140.023293 C0.00080284245,140.023293 0.00080284245,37.3859522 0.00080284245,26.6137201 C40.2559058,38.6821481 40.2559058,84.2670027 40.2559058,84.2670027 C42.0160391,111.28614 30.5178122,186.296685 90.0114948,192.38686 C90.0114948,192.38686 114.261267,194.747574 114.261267,194.747574 C133.537557,196.967587 144.450736,208.718396 147.000803,230 Z" id="middle" fill="url(#linearGradient-6)"></path>
                <path d="M147.001461,230 C133.003357,230 114.814198,230 92.4339853,230 C52.1862298,230 29.254833,206.593594 29.254833,206.593594 C-0.125617791,182.743013 0.00141807279,140.023293 0.00141807279,140.023293 C13.8989811,188.027277 72.5270889,189.854545 90.0114948,192.38686 C90.0114948,192.38686 114.261267,194.747574 114.261267,194.747574 C133.537557,196.967587 144.450955,208.718396 147.001461,230 Z" id="bottom" fill="url(#linearGradient-7)"></path>
                <path d="M71.0014657,82 L128.001466,82 L128.001466,82 L128.001466,84.5 C128.001466,102.449254 113.45072,117 95.5014657,117 L71.0014657,117 C66.5831877,117 63.0014657,113.418278 63.0014657,109 L63.0014657,90 C63.0014657,85.581722 66.5831877,82 71.0014657,82 Z" id="cross" fill="url(#linearGradient-8)"></path>
            </g>
        </g>
    </g>
</svg>