<svg xmlns="http://www.w3.org/2000/svg" width="594" height="500" viewBox="0 0 594 500">
  <g fill="none">
    <path fill="#444" d="M396,0.3 L198,0.3 L198,198.2 C198,199.9 198,201.6 198.1,203.3 C212.6,161 252.7,130.7 299.9,130.7 C359.3,130.7 407.5,178.9 407.5,238.3 C407.5,297.7 359.3,345.9 299.9,345.9 C283.1,345.9 267.2,342.1 253.1,335.2 C289.1,372.8 339.8,396.2 396,396.2 L396,396.2 C505.3,396.2 593.9,307.6 593.9,198.3 L593.9,198.3 C593.9,88.9 505.3,0.3 396,0.3 Z"/>
    <path fill="#222" d="M339.8,0.3 L198,0.3 L198,142 C198,157.7 200.6,172.8 205.3,186.9 C223.5,153.4 259.1,130.6 299.9,130.6 C359.3,130.6 407.5,178.8 407.5,238.2 C407.5,248.9 405.9,259.2 403,269 C449.6,245.8 481.6,197.6 481.6,142 L481.6,142 C481.6,63.7 418.1,0.3 339.8,0.3 Z"/>
    <path fill="#444" d="M299.9,345.8 C240.5,345.8 192.3,297.6 192.3,238.2 C192.3,179.6 239.1,132 297.4,130.6 C268.2,113.6 234.3,103.9 198.1,103.9 L198.1,103.9 C88.8,103.9 0.2,192.5 0.2,301.8 L0.2,301.8 C0.2,411.1 88.8,499.7 198.1,499.7 L396,499.7 L396,301.8 C396,297 395.8,292.3 395.5,287.7 C377.5,322.2 341.5,345.8 299.9,345.8 Z"/>
    <path fill="#222" d="M299.9,345.8 C240.5,345.8 192.3,297.6 192.3,238.2 C192.3,227 194,216.1 197.2,205.9 C137.4,225.9 94.4,282.4 94.4,348.9 L94.4,348.9 C94.4,432.2 161.9,499.7 245.2,499.7 L396,499.7 L396,349 C396,331.9 393.2,315.5 387.9,300.2 C368.4,327.8 336.3,345.8 299.9,345.8 Z"/>
  </g>
</svg>
